# xmcd CD database file
#
# Track frame offsets:
#	150
#	21547
#	39135
#	63500
#	83892
#	105545
#	132435
#	148377
#	170340
#	193740
#	217897
#	242682
#	265897
#
# Disc length: 4097 seconds
#
# Revision: 7
# Processed by: cddbd v1.4PL0 Copyright (c) Steve Scherf et al.
# Submitted via: CDex 1.51
#
DISCID=bc0fff0d
DTITLE=Lynyrd Skynyrd - The Essential Lynyrd Skynyrd [CD1]
DYEAR=1998
DGENRE=Southern Rock
TTITLE0=Sweet Home Alabama
TTITLE1=I Ain't the One
TTITLE2=Was I Right or Wrong
TTITLE3=Gimme Three Steps
TTITLE4=Workin' for MCA
TTITLE5=Simple Man
TTITLE6=Swamp Music
TTITLE7=The Ballad of Curtis Loew
TTITLE8=Saturday Night Special
TTITLE9=Mr. Banker
TTITLE10=Comin' Home
TTITLE11=Call Me the Breeze
TTITLE12=Free Bird
EXTD=YEAR: 1998
EXTT0=
EXTT1=
EXTT2=
EXTT3=
EXTT4=
EXTT5=
EXTT6=
EXTT7=
EXTT8=
EXTT9=
EXTT10=
EXTT11=
EXTT12=
PLAYORDER=
